# xmcd
#
# Track frame offsets:
#	150
#	1342
#	16012
#	16837
#	29850
#	32460
#	43505
#	66837
#	71267
#	86680
#	88092
#	103387
#	115232
#	119947
#	121185
#	138465
#
# Disc length: 1852
#
# Revision: 10
# Processed by: cddbd v1.5.1PL0 Copyright (c) Steve Scherf et al.
# Submitted via: ExactAudioCopy v0.90b4
# Normalized: r9:DSETVAR1
#
DISCID=d5073a10
DTITLE=Various Artist - Reservoir Dogs (OST)
DYEAR=1992
DGENRE=Soundtrack
TTITLE0=Steven Wright - And Now Little Green Bag... (Dialogue)
TTITLE1=The George Baker Selection - Little Green Bag
TTITLE2=Steven Wright - Rock Flock Of Five (Dialogue)
TTITLE3=Blue Swede - Hooked On A Feeling
TTITLE4=Steven Wright - Bohemiath (Dialogue)
TTITLE5=Joe Tex - I Gotcha
TTITLE6=Bedlam - Magic Carpet Ride
TTITLE7=Steven Wright - Madonna Speech (Dialogue)
TTITLE8=Sandy Rogers - Fool For Love
TTITLE9=Steven Wright - Super Sounds (Dialogue)
TTITLE10=Stealers Wheel - Stuck In The Middle With You
TTITLE11=Bedlam - Harvest Moon
TTITLE12=Steven Wright - Let's Get A Taco (Dialogue)
TTITLE13=Steven Wright - Keep On Truckin' (Dialogue)
TTITLE14=Harry Nilsson - Coconut
TTITLE15=Steven Wright - Home Of Rock (Dialogue)
EXTD=YEAR: 1992 ID3G: 24
EXTT0=
EXTT1=
EXTT2=
EXTT3=
EXTT4=
EXTT5=
EXTT6=
EXTT7=
EXTT8=
EXTT9=
EXTT10=
EXTT11=
EXTT12=
EXTT13=
EXTT14=
EXTT15=
PLAYORDER=
